<?xml version="1.0" standalone="no"?>
<!DOCTYPE svg PUBLIC "-//W3C//DTD SVG 20010904//EN"
 "http://www.w3.org/TR/2001/REC-SVG-20010904/DTD/svg10.dtd">
<svg version="1.0" xmlns="http://www.w3.org/2000/svg"
 width="497.000000pt" height="497.000000pt" viewBox="0 0 497.000000 497.000000"
 preserveAspectRatio="xMidYMid meet">
<metadata>
Created by potrace 1.11, written by Peter Selinger 2001-2013
</metadata>
<g transform="translate(0.000000,497.000000) scale(0.100000,-0.100000)"
fill="#000000" stroke="none">
<path d="M2320 4373 c0 -6 -9 -10 -20 -8 -11 2 -20 0 -20 -4 0 -10 -31 -8 -49
4 -10 5 -12 4 -7 -3 5 -8 -1 -12 -16 -12 -29 0 -97 -45 -94 -62 1 -7 5 -18 9
-25 4 -6 3 -14 -1 -17 -11 -7 -9 -127 3 -145 5 -9 4 -12 -3 -7 -14 9 -13 -57
2 -66 7 -5 6 -8 -3 -8 -11 0 -11 -3 0 -17 8 -9 9 -14 3 -10 -13 8 -13 -111 0
-132 6 -9 5 -12 -1 -8 -6 4 -14 0 -17 -9 -3 -9 -2 -12 4 -9 7 4 9 -3 6 -19 -3
-14 0 -28 5 -32 5 -3 6 -11 2 -17 -12 -18 -11 -91 1 -99 8 -5 7 -8 -1 -8 -6 0
-10 -10 -9 -22 3 -23 1 -23 -110 -23 -73 0 -110 3 -107 10 3 5 0 4 -8 -2 -7
-7 -17 -13 -22 -13 -4 0 -5 6 -1 13 6 9 4 9 -7 1 -8 -6 -42 -10 -76 -9 -35 1
-63 -2 -63 -7 0 -4 -3 -7 -7 -6 -29 8 -69 -32 -64 -64 1 -5 -4 -8 -10 -8 -8 0
-8 -4 0 -14 9 -11 9 -17 -1 -27 -21 -23 -12 -219 11 -227 6 -2 9 -7 6 -11 -6
-11 39 -52 61 -56 11 -2 19 -4 19 -5 0 -1 15 -2 33 -3 17 -1 32 1 32 4 0 4 15
3 34 -1 22 -5 39 -3 45 3 6 6 11 7 11 2 0 -6 11 -10 25 -10 14 0 25 3 25 7 0
4 11 3 24 -2 15 -5 27 -5 35 3 6 6 11 7 11 2 0 -6 11 -10 25 -10 14 0 25 3 25
6 0 10 50 -2 51 -12 3 -19 5 -24 12 -36 4 -6 3 -14 -3 -18 -5 -3 -8 -20 -6
-38 2 -18 -1 -38 -7 -46 -9 -12 -9 -13 1 -7 9 6 11 1 8 -18 -3 -14 0 -28 5
-32 6 -3 6 -10 1 -17 -11 -15 -9 -127 2 -146 6 -9 5 -12 -2 -7 -14 9 -13 -57
2 -66 7 -5 6 -8 -3 -8 -11 0 -11 -3 0 -17 8 -9 9 -14 3 -10 -13 8 -13 -111 0
-132 6 -9 5 -12 -1 -8 -6 4 -14 0 -17 -9 -3 -9 -2 -12 4 -9 7 4 9 -3 6 -19 -3
-14 0 -28 5 -32 5 -3 6 -11 2 -17 -12 -18 -10 -107 2 -107 7 0 7 -3 0 -8 -16
-11 -17 -33 -3 -50 7 -9 8 -13 2 -9 -7 4 -11 -10 -10 -43 0 -29 4 -50 10 -50
7 0 8 -3 1 -8 -16 -11 -17 -33 -3 -50 10 -12 10 -14 0 -8 -8 5 -11 1 -8 -16 2
-13 -1 -33 -5 -46 -6 -15 -5 -21 1 -17 7 4 9 -3 6 -19 -3 -14 0 -28 5 -32 6
-3 6 -10 1 -17 -11 -15 -9 -127 2 -146 6 -9 5 -12 -2 -7 -14 9 -13 -57 2 -66
7 -5 6 -8 -3 -8 -11 0 -11 -3 0 -17 8 -9 9 -14 3 -10 -13 8 -13 -111 0 -132 6
-9 5 -12 -1 -8 -6 4 -14 0 -17 -9 -3 -9 -2 -12 4 -9 7 4 9 -3 6 -19 -3 -14 0
-28 5 -32 5 -3 6 -11 2 -17 -11 -16 -10 -147 0 -140 4 2 8 -13 7 -34 0 -21 1
-49 4 -63 4 -23 16 -90 20 -115 1 -5 5 -16 9 -22 5 -7 5 -17 2 -23 -3 -5 -1
-10 5 -10 6 0 8 -4 5 -10 -3 -5 0 -10 7 -10 9 0 9 -3 -2 -10 -9 -6 -10 -10 -3
-10 7 0 18 -18 24 -40 7 -22 15 -40 18 -40 3 0 12 -13 19 -28 6 -16 21 -38 32
-50 11 -12 20 -23 20 -26 0 -22 153 -145 173 -138 4 1 7 -3 7 -8 0 -6 5 -10
12 -10 6 0 20 -7 30 -17 14 -13 18 -13 18 -2 0 9 3 10 8 3 9 -14 103 -44 136
-44 14 0 27 -4 30 -9 3 -5 20 -7 38 -5 18 2 35 -1 40 -8 6 -10 8 -10 8 0 0 7
5 10 11 6 14 -8 199 -12 199 -3 0 3 19 6 43 6 23 0 49 3 57 6 8 3 31 8 50 11
50 7 86 15 114 26 13 5 27 6 30 3 3 -4 6 -1 6 5 0 6 9 14 21 17 20 7 86 65 73
65 -3 0 -1 6 5 13 6 8 8 17 4 20 -3 4 -2 7 4 7 5 0 10 19 11 43 1 23 4 65 7
94 3 28 2 54 -3 57 -5 3 -8 21 -5 41 2 19 -1 35 -6 35 -5 0 -7 10 -4 23 3 12
2 19 -2 15 -5 -5 -15 1 -23 13 -10 15 -21 19 -36 14 -11 -3 -30 -8 -40 -10
-11 -3 -24 -9 -30 -15 -5 -5 -20 -10 -32 -10 -13 0 -26 -4 -29 -10 -3 -5 -17
-10 -31 -10 -13 0 -24 -4 -24 -9 0 -6 -9 -8 -20 -6 -11 2 -20 1 -20 -4 0 -4
-34 -6 -75 -5 -41 0 -72 -2 -70 -7 3 -4 -3 -6 -12 -4 -10 2 -18 4 -18 6 0 2
-44 9 -72 11 -13 1 -23 6 -23 11 0 5 -7 7 -15 4 -8 -4 -22 4 -33 18 -11 13
-22 22 -25 19 -5 -6 -47 31 -47 41 0 3 -9 15 -20 27 -11 12 -20 30 -20 39 0
10 -5 19 -10 21 -6 2 -13 16 -16 31 -2 16 -11 46 -18 67 -10 28 -10 40 -2 44
7 3 6 5 -2 5 -7 1 -10 6 -7 11 3 5 3 16 -2 22 -13 21 -14 77 -16 917 l-2 805
28 7 c15 4 27 4 27 1 0 -4 52 -7 115 -7 63 0 115 3 115 7 0 4 11 3 24 -2 15
-5 27 -5 35 3 6 6 11 7 11 2 0 -6 11 -10 25 -10 14 0 25 4 25 10 0 5 5 4 11
-2 7 -7 21 -8 40 -3 16 5 29 5 29 1 0 -9 31 -8 48 3 6 4 12 4 12 -1 0 -4 18
-8 40 -8 22 0 40 3 40 6 0 4 15 4 33 0 36 -9 123 21 112 39 -3 5 -2 10 2 10 9
0 34 54 37 83 2 9 -2 17 -8 17 -8 0 -8 2 0 8 12 8 12 87 0 115 -5 10 -4 17 2
17 7 0 6 13 -4 35 -8 19 -11 35 -8 35 4 0 -3 8 -14 19 -12 10 -22 23 -22 29 0
6 -9 9 -20 7 -11 -2 -20 0 -20 4 0 4 -54 7 -119 6 -73 0 -117 3 -114 9 4 5 1
6 -8 1 -20 -13 -239 -13 -232 0 3 5 0 4 -8 -2 -7 -7 -17 -13 -22 -13 -4 0 -5
6 -1 13 6 9 4 9 -7 2 -11 -8 -165 -13 -199 -6 -8 1 -6 44 2 57 4 6 4 14 0 18
-4 4 -7 141 -7 304 0 294 0 297 -23 320 -12 12 -22 19 -22 16 0 -4 -6 -1 -14
5 -8 6 -18 11 -22 10 -5 -1 -11 -1 -14 0 -10 4 -97 12 -140 14 -25 1 -48 6
-52 12 -5 6 -8 6 -8 -2z"/>
</g>
</svg>
