<svg version="1.0" xmlns="http://www.w3.org/2000/svg"
 width="{{ .width }}" height="{{ .height }}" viewBox="0 0 1280.000000 1280.000000"
 preserveAspectRatio="xMidYMid meet">
<g transform="translate(0.000000,1280.000000) scale(0.100000,-0.100000)"
fill="#000000" stroke="none">
<path fill="currentColor" d="M5950 12793 c-924 -81 -1662 -283 -2420 -663 -1457 -730 -2580 -1984
-3145 -3515 -188 -510 -300 -1005 -367 -1620 -21 -195 -18 -1026 5 -1235 72
-659 221 -1253 458 -1822 587 -1410 1666 -2570 3029 -3257 715 -361 1407 -564
2240 -658 127 -14 245 -18 650 -18 545 0 658 8 1065 76 1878 316 3505 1441
4475 3094 120 205 328 632 414 850 245 622 383 1226 437 1907 16 204 6 936
-15 1118 -95 817 -289 1491 -626 2175 -721 1466 -1986 2611 -3510 3178 -421
157 -886 276 -1310 337 -341 48 -409 52 -880 55 -250 1 -475 1 -500 -2z m330
-791 l0 -539 -147 -6 c-185 -8 -455 -39 -641 -73 -80 -15 -147 -22 -152 -18
-4 5 -52 189 -105 409 -53 220 -110 450 -125 512 l-28 112 52 10 c179 35 225
43 346 60 192 28 421 51 595 60 83 4 162 9 178 10 l27 1 0 -538z m475 523
c269 -12 514 -43 843 -106 150 -29 162 -33 162 -53 0 -22 -244 -1014 -251
-1020 -2 -2 -85 11 -184 30 -232 42 -474 73 -642 81 l-133 6 0 539 0 538 38
-5 c20 -2 96 -7 167 -10z m-1811 -719 c70 -280 125 -510 124 -512 -2 -1 -71
-24 -153 -49 -186 -58 -420 -146 -596 -224 -156 -70 -131 -80 -218 84 -218
411 -411 784 -411 792 0 9 135 72 346 164 219 94 760 276 775 261 3 -4 63
-236 133 -516z m3361 429 c105 -34 266 -93 360 -129 198 -78 495 -215 495
-228 0 -13 -35 -80 -267 -513 -119 -220 -221 -406 -228 -413 -11 -12 -41 -1
-181 61 -187 83 -434 177 -593 226 l-103 32 6 42 c8 47 205 852 231 941 l17
58 36 -7 c21 -4 123 -35 227 -70z m-4660 -840 c103 -198 212 -406 242 -462
l54 -101 -98 -58 c-147 -86 -433 -281 -563 -383 -63 -50 -120 -90 -127 -88 -6
1 -167 177 -356 392 -274 310 -343 393 -334 404 17 20 138 117 272 218 254
191 704 474 716 450 3 -6 91 -174 194 -372z m5990 217 c219 -136 549 -376 709
-515 l40 -34 -22 -28 c-18 -22 -457 -519 -648 -733 l-40 -46 -80 66 c-163 134
-406 305 -607 428 l-87 53 76 146 c41 80 155 293 252 473 l176 328 55 -31 c31
-18 110 -65 176 -107z m-3375 -966 l0 -543 -117 -7 c-332 -20 -728 -106 -1066
-233 -91 -34 -152 -52 -158 -46 -5 5 -112 222 -238 483 l-229 475 25 13 c94
51 499 192 708 247 309 82 747 149 1003 154 l72 1 0 -544z m490 534 c368 -29
728 -97 1075 -205 157 -49 489 -176 517 -197 14 -12 -10 -66 -217 -493 -141
-289 -239 -479 -247 -478 -7 1 -78 26 -158 57 -340 129 -702 208 -1070 234
l-105 7 -3 543 -2 542 42 0 c24 0 99 -5 168 -10z m-4313 -492 c385 -433 503
-569 503 -579 0 -5 -60 -72 -133 -148 -154 -159 -279 -302 -396 -454 -46 -59
-85 -107 -88 -107 -3 0 -200 135 -439 301 l-435 301 17 27 c36 54 165 222 254
327 192 228 494 544 519 544 5 0 94 -96 198 -212z m8527 -198 c173 -192 435
-516 424 -525 -31 -24 -881 -605 -882 -603 -2 2 -36 46 -76 98 -115 149 -205
252 -379 435 -88 93 -161 173 -161 177 0 7 314 364 604 685 l101 112 123 -122
c68 -67 179 -183 246 -257z m-6556 -245 c187 -388 261 -548 256 -556 -2 -4
-50 -33 -106 -65 -287 -164 -498 -326 -764 -587 l-202 -197 -416 332 c-240
191 -416 338 -414 346 8 36 389 413 563 557 219 181 494 369 735 504 l145 81
29 -58 c16 -31 94 -192 174 -357z m4262 375 c288 -145 698 -441 1003 -725 106
-97 377 -382 377 -395 0 -3 -30 -31 -67 -61 -131 -105 -599 -475 -686 -543
l-87 -68 -158 159 c-170 172 -273 263 -452 395 -110 82 -296 202 -407 264 -29
16 -53 32 -53 36 0 16 459 968 467 968 2 0 30 -13 63 -30z m-1855 -806 c753
-95 1429 -419 1968 -944 218 -211 350 -371 500 -601 286 -441 471 -949 533
-1469 19 -163 22 -594 4 -750 -71 -636 -294 -1201 -671 -1703 -524 -698 -1268
-1163 -2119 -1326 -228 -43 -344 -53 -640 -53 -315 0 -449 14 -725 74 -628
136 -1227 464 -1686 921 -553 551 -893 1245 -994 2032 -12 94 -17 206 -17 405
0 199 5 311 17 405 145 1128 789 2075 1780 2617 424 232 879 366 1405 412 93
8 529 -5 645 -20z m-4985 -412 c162 -113 302 -211 311 -219 15 -13 8 -29 -78
-171 -90 -150 -276 -509 -321 -619 -11 -29 -26 -53 -31 -53 -9 0 -326 117
-851 315 -69 26 -129 51 -134 56 -29 26 274 625 481 952 l75 117 126 -87 c70
-48 260 -179 422 -291z m9898 28 c150 -260 374 -734 355 -750 -4 -4 -71 -31
-148 -60 -77 -29 -292 -110 -479 -181 -186 -71 -344 -129 -351 -129 -7 0 -40
62 -75 138 -81 179 -191 390 -291 558 -44 75 -79 137 -77 138 7 7 633 440 748
519 l125 85 49 -76 c27 -43 92 -151 144 -242z m-8718 -475 l420 -334 -58 -81
c-200 -279 -373 -623 -493 -980 -37 -113 -63 -174 -71 -173 -7 1 -231 52 -498
113 -267 61 -499 114 -516 117 l-31 5 33 112 c140 470 329 880 590 1279 89
136 191 277 199 277 3 0 194 -151 425 -335z m7293 223 c238 -328 461 -755 611
-1170 63 -175 127 -391 118 -399 -4 -3 -232 -57 -507 -118 -275 -62 -510 -115
-521 -117 -20 -5 -25 6 -64 128 -112 354 -258 658 -467 971 l-92 138 242 192
c286 227 601 476 604 477 1 0 35 -46 76 -102z m-9190 -907 c261 -98 482 -183
490 -187 13 -8 10 -27 -25 -134 -53 -168 -131 -476 -157 -630 -13 -69 -24
-135 -27 -147 -3 -18 -9 -21 -37 -17 -17 2 -241 29 -497 60 -567 67 -530 60
-530 89 0 39 59 349 95 499 73 308 178 646 200 646 7 0 227 -81 488 -179z
m11105 78 c89 -238 239 -870 245 -1034 l2 -60 -130 -17 c-309 -40 -917 -109
-922 -105 -2 3 -20 88 -38 189 -43 232 -105 475 -180 705 -3 7 12 21 33 32 73
36 942 362 956 358 5 -2 20 -32 34 -68z m-9983 -1109 c285 -66 520 -122 522
-123 1 -2 -4 -41 -12 -88 -63 -372 -68 -767 -15 -1153 11 -77 19 -141 17 -142
-3 -3 -696 -161 -919 -210 -70 -15 -130 -25 -133 -22 -8 8 -40 202 -61 370
-22 177 -30 683 -15 889 17 226 73 599 90 599 4 0 240 -54 526 -120z m8884 34
c25 -140 50 -346 62 -496 15 -203 6 -736 -15 -908 -21 -167 -56 -373 -65 -382
-3 -4 -135 22 -291 57 -323 74 -754 176 -758 180 -2 1 6 70 18 151 53 387 52
721 -1 1087 -11 77 -19 141 -16 143 6 6 1009 232 1033 233 19 1 23 -7 33 -65z
m-10449 -309 c555 -64 670 -79 680 -85 7 -5 7 -81 -1 -240 -9 -178 -9 -290 0
-469 7 -128 8 -237 4 -241 -8 -7 -1054 -133 -1059 -127 -1 1 -8 86 -14 188
-12 179 -8 806 6 952 l6 57 41 0 c23 0 175 -16 337 -35z m11844 -27 c14 -96
18 -746 6 -948 -6 -113 -13 -206 -14 -207 -3 -4 -1002 113 -1041 122 -20 4
-20 12 -20 478 l0 473 505 61 c278 33 517 61 531 62 24 1 28 -3 33 -41z
m-11115 -1340 c5 -29 20 -102 31 -163 29 -150 91 -391 144 -560 24 -77 41
-143 37 -147 -5 -6 -778 -298 -939 -354 -45 -16 -54 -17 -62 -4 -27 44 -142
445 -199 693 -37 162 -91 467 -82 467 3 1 224 27 491 59 267 33 504 59 527 60
l42 1 10 -52z m10386 -3 c527 -60 663 -78 676 -86 33 -20 -98 -613 -217 -981
-31 -95 -57 -174 -59 -176 -5 -6 -983 354 -997 367 -3 3 12 62 33 131 57 180
125 447 154 607 37 203 30 186 73 179 20 -3 172 -22 337 -41z m-8931 -277
c114 -364 262 -675 463 -976 46 -69 80 -128 78 -133 -8 -11 -827 -664 -834
-664 -9 0 -216 308 -288 430 -139 233 -265 496 -365 760 -51 135 -160 486
-154 492 5 5 962 226 1046 242 3 1 27 -68 54 -151z m7341 92 c254 -58 828
-191 842 -195 14 -5 -4 -73 -79 -305 -138 -424 -376 -899 -626 -1252 -48 -67
-91 -123 -96 -122 -5 0 -196 150 -425 333 l-417 333 98 147 c182 276 320 557
422 863 30 90 60 182 66 205 6 26 15 41 23 38 6 -2 93 -23 192 -45z m-8367
-1182 c84 -175 139 -277 254 -470 38 -65 68 -122 66 -128 -2 -6 -197 -145
-433 -309 -429 -299 -430 -299 -447 -278 -9 12 -72 114 -140 227 -185 308
-425 797 -402 820 9 9 565 224 844 326 l145 53 17 -37 c9 -20 53 -112 96 -204z
m9755 51 c265 -99 486 -184 491 -190 12 -11 -25 -97 -145 -344 -119 -243 -323
-602 -394 -691 l-20 -25 -185 127 c-208 143 -634 439 -666 464 -22 16 -21 17
83 191 100 167 250 455 306 587 14 34 31 62 37 62 6 0 228 -81 493 -181z
m-7933 -365 c97 -109 337 -335 442 -417 130 -101 292 -212 428 -293 69 -41
125 -79 125 -84 0 -6 -103 -226 -230 -489 l-230 -479 -85 45 c-313 169 -675
432 -965 701 -122 113 -376 379 -396 414 -7 13 73 81 409 351 229 185 419 336
422 335 3 0 39 -38 80 -84z m5951 -231 c201 -161 385 -310 409 -331 l44 -39
-18 -29 c-36 -55 -481 -490 -601 -587 -155 -126 -348 -266 -475 -345 -122 -76
-342 -202 -353 -202 -4 0 -53 93 -108 208 -176 362 -359 751 -359 760 0 5 42
33 93 62 288 163 534 354 792 614 105 106 195 190 200 187 6 -3 175 -136 376
-298z m1344 -591 c226 -156 412 -286 414 -288 10 -9 -206 -283 -367 -467 -158
-180 -407 -430 -423 -425 -8 3 -171 181 -362 397 l-348 393 150 154 c150 154
318 346 421 481 l54 72 26 -16 c14 -9 210 -145 435 -301z m-8551 208 c117
-153 246 -301 402 -460 l142 -145 -319 -360 c-176 -198 -338 -378 -360 -400
l-39 -40 -150 153 c-281 287 -643 723 -624 753 8 13 853 599 864 599 4 0 41
-45 84 -100z m2815 -409 c303 -102 628 -168 941 -189 l105 -7 3 -544 2 -544
-122 7 c-538 30 -1097 160 -1595 370 l-112 47 38 82 c21 45 98 206 171 357 73
151 161 335 196 407 l63 133 82 -35 c44 -19 147 -57 228 -84z m2715 32 c82
-163 426 -885 426 -893 0 -11 -335 -142 -500 -195 -275 -88 -579 -156 -848
-190 -132 -16 -362 -35 -434 -35 l-48 0 2 543 3 542 165 13 c91 6 221 21 290
32 252 41 611 141 815 229 39 16 75 30 80 30 6 1 28 -34 49 -76z m2014 -720
c154 -175 312 -356 352 -402 l72 -83 -34 -29 c-74 -65 -402 -307 -533 -394
-155 -103 -414 -259 -420 -254 -2 3 -189 357 -441 837 l-53 102 52 34 c309
198 518 343 665 463 30 23 55 43 57 43 2 0 130 -143 283 -317z m-6688 239
c155 -125 408 -300 593 -411 48 -29 87 -55 87 -58 0 -5 -148 -287 -403 -769
-51 -95 -94 -174 -97 -174 -3 0 -59 32 -125 71 -256 152 -531 344 -753 526
-90 75 -101 86 -90 102 25 33 692 781 698 781 3 0 43 -31 90 -68z m1165 -700
c153 -64 332 -129 510 -184 l141 -43 -129 -520 c-71 -286 -130 -521 -131 -522
-6 -6 -402 123 -561 182 -212 79 -565 235 -565 249 0 7 379 724 467 883 l34
63 58 -29 c31 -16 111 -52 176 -79z m4352 -134 c201 -375 363 -685 363 -695 0
-13 -217 -116 -396 -189 -300 -122 -707 -256 -724 -238 -4 5 -62 232 -129 504
-67 272 -124 502 -127 511 -4 14 27 27 173 74 197 63 447 159 593 228 52 25
100 46 106 46 6 1 70 -108 141 -241z m-3325 -178 c221 -42 442 -69 719 -86
l106 -6 6 -112 c4 -61 7 -303 7 -539 l0 -427 -52 5 c-29 2 -109 7 -178 10
-152 7 -370 29 -545 55 -167 25 -398 69 -414 79 -13 8 14 128 159 711 44 177
80 324 80 326 0 6 -1 6 112 -16z m2127 -312 c167 -682 171 -702 151 -710 -23
-8 -261 -52 -420 -77 -170 -27 -396 -49 -565 -56 -77 -3 -152 -8 -167 -10
l-28 -4 0 478 c0 263 3 505 6 539 l7 60 86 7 c296 21 528 48 706 84 50 10 102
19 117 20 l26 1 81 -332z"/>
</g>
</svg>
